<?xml version="1.0" encoding="UTF-8"?>
<svg width="260" height="260" version="1.1" viewBox="0 0 68.792 68.792" xmlns="http://www.w3.org/2000/svg">
  <g transform="translate(2.0504e-8 61.415)">
    <g aria-label="Ludi">
      <rect x="-2.0504e-8" y="-61.415" width="68.792" height="68.792" ry="11.056" fill="#036134"/>
      <path d="m45.54-24.277h-8.9395v-16.504c0-2.5006-1.0002-4.7511-2.6256-6.3764-1.6254-1.6254-3.8759-2.6881-6.3764-2.6881-5.0011 0-9.002 4.0634-9.002 9.0645v25.506c0 1.1878 0.25004 2.3755 0.68766 3.4383 0.43758 1.0627 1.1253 2.063 1.9379 2.9382 1.6879 1.6879 4.0009 2.6256 6.3764 2.6256h17.942c2.5006 0 4.7511-1.0002 6.3764-2.6256 1.6254-1.6254 2.6256-3.8759 2.6256-6.3764 0-5.0011-4.0634-9.002-9.002-9.002z" fill="#a3c23a" stroke-width="1.5628"/>
    </g>
  </g>
</svg>
