<?xml version="1.0" standalone="no"?>
<!DOCTYPE svg PUBLIC "-//W3C//DTD SVG 20010904//EN"
 "http://www.w3.org/TR/2001/REC-SVG-20010904/DTD/svg10.dtd">
<svg version="1.0" xmlns="http://www.w3.org/2000/svg"
 width="700.000000pt" height="700.000000pt" viewBox="0 0 700.000000 700.000000"
 preserveAspectRatio="xMidYMid meet">
<metadata>
Created by potrace 1.14, written by Peter Selinger 2001-2017
</metadata>
<g transform="translate(0.000000,700.000000) scale(0.100000,-0.100000)"
fill="#000000" stroke="none">
<path d="M948 6984 c-230 -35 -451 -148 -617 -315 -170 -169 -280 -388 -316
-626 -22 -148 -22 -4938 0 -5086 36 -238 144 -453 315 -625 169 -171 388 -281
627 -317 148 -22 4938 -22 5086 0 497 75 885 472 946 970 8 63 11 811 11 2525
0 2671 3 2534 -60 2720 -56 169 -146 315 -271 439 -169 170 -388 280 -626 316
-140 21 -4959 21 -5095 -1z m2037 -1183 c337 -69 596 -308 702 -648 l28 -88 3
-922 3 -922 527 -4 c469 -3 535 -6 597 -22 346 -89 595 -343 682 -693 25 -100
22 -313 -5 -414 -42 -155 -94 -258 -190 -374 -110 -134 -293 -248 -472 -296
l-85 -22 -1005 -4 c-1084 -3 -1098 -3 -1255 49 -337 112 -574 409 -614 771
-15 132 -15 2635 -1 2778 56 545 558 920 1085 811z"/>
</g>
</svg>
